<svg width="749" height="1024" viewBox="0 0 749 1024" fill="none" xmlns="http://www.w3.org/2000/svg">
<path d="M304.653 98.8694C242.959 -1.87361 332.473 -127.324 447.805 -101.753L648.412 -57.2739C734.929 -38.0912 796.5 38.6272 796.5 127.245V837.5C796.5 941.882 711.882 1026.5 607.5 1026.5H173.898C97.2055 1026.5 30.164 974.771 10.7127 900.586L5.2986 879.938C-14.8962 802.918 29.9881 723.839 106.47 701.692L124.647 696.429C184.041 679.229 221.898 621.144 213.653 559.861L207.801 516.363C202.001 473.257 231.71 433.417 274.679 426.677C327.647 418.369 357.603 361.325 334.376 313.003L318.6 280.182C307.992 258.113 310.652 231.959 325.486 212.478C341.771 191.09 343.251 161.897 329.212 138.972L304.653 98.8694Z" fill="#2D973D"/>
</svg>
